HIERARCHY
ROOT Hips
{
    OFFSET 0.000000 0.000000 0.000000
    CHANNELS 6 Xposition Yposition Zposition Zrotation Xrotation Yrotation
    JOINT Spine
    {
        OFFSET -0.000000 7.948960 0.000000
        CHANNELS 3 Zrotation Xrotation Yrotation
        JOINT Spine1
        {
            OFFSET -0.000000 20.242701 0.000000
            CHANNELS 3 Zrotation Xrotation Yrotation
            JOINT Neck
            {
                OFFSET -0.000000 22.181501 0.000000
                CHANNELS 3 Zrotation Xrotation Yrotation
                JOINT Head
                {
                    OFFSET -0.000000 15.025499 1.938770
                    CHANNELS 3 Zrotation Xrotation Yrotation
                    End Site
                    {
                        OFFSET -0.000000 19.387667 0.000000
                    }
                }
            }
            JOINT LeftShoulder
            {
                OFFSET 3.956620 17.711000 0.144298
                CHANNELS 3 Zrotation Xrotation Yrotation
                JOINT LeftArm
                {
                    OFFSET 13.548300 0.000000 0.000000
                    CHANNELS 3 Zrotation Xrotation Yrotation
                    JOINT LeftForeArm
                    {
                        OFFSET 29.681900 0.000000 0.000000
                        CHANNELS 3 Zrotation Xrotation Yrotation
                        JOINT LeftHand
                        {
                            OFFSET 26.733898 0.000000 0.000000
                            CHANNELS 3 Zrotation Xrotation Yrotation
                            End Site
                            {
                                OFFSET 14.540751 0.000000 0.000000
                            }
                        }
                    }
                }
            }
            JOINT RightShoulder
            {
                OFFSET -3.794510 17.711000 0.144298
                CHANNELS 3 Zrotation Xrotation Yrotation
                JOINT RightArm
                {
                    OFFSET -13.548300 0.000000 0.000000
                    CHANNELS 3 Zrotation Xrotation Yrotation
                    JOINT RightForeArm
                    {
                        OFFSET -29.681900 0.000000 0.000000
                        CHANNELS 3 Zrotation Xrotation Yrotation
                        JOINT RightHand
                        {
                            OFFSET -26.733898 0.000000 0.000000
                            CHANNELS 3 Zrotation Xrotation Yrotation
                            End Site
                            {
                                OFFSET -14.540751 0.000000 0.000000
                            }
                        }
                    }
                }
            }
        }
    }
    JOINT LeftUpLeg
    {
        OFFSET 9.693850 0.000000 0.000000
        CHANNELS 3 Zrotation Xrotation Yrotation
        JOINT LeftLeg
        {
            OFFSET -0.000000 -57.882603 0.000000
            CHANNELS 3 Zrotation Xrotation Yrotation
            JOINT LeftFoot
            {
                OFFSET -0.000000 -37.133801 0.000000
                CHANNELS 3 Zrotation Xrotation Yrotation
                JOINT LeftToeBase
                {
                    OFFSET -0.000000 -6.301010 14.540800
                    CHANNELS 3 Zrotation Xrotation Yrotation
                    End Site
                    {
                        OFFSET -0.000000 0.000000 3.877533
                    }
                }
            }
        }
    }
    JOINT RightUpLeg
    {
        OFFSET -9.693850 0.000000 0.000000
        CHANNELS 3 Zrotation Xrotation Yrotation
        JOINT RightLeg
        {
            OFFSET -0.000000 -57.882603 0.000000
            CHANNELS 3 Zrotation Xrotation Yrotation
            JOINT RightFoot
            {
                OFFSET -0.000000 -37.133801 0.000000
                CHANNELS 3 Zrotation Xrotation Yrotation
                JOINT RightToeBase
                {
                    OFFSET -0.000000 -6.301010 14.540800
                    CHANNELS 3 Zrotation Xrotation Yrotation
                    End Site
                    {
                        OFFSET -0.000000 0.000000 3.877533
                    }
                }
            }
        }
    }
}
MOTION
Frames:    11
Frame Time:    0.033333
-1.379978    102.167725    32.375866    -2.461910    -5.087708    167.991608    -2.444116    2.798288    1.205775    1.114848    2.530339    0.357752    -4.175673    -1.023642    2.248036    -8.100597    -12.253317    1.982668    11.936959    3.995901    0.765731    -44.901951    -12.360216    4.358205    9.573782    0.656302    5.764112    -102.607422    -70.171967    -95.741432    -5.908247    2.072806    -0.445987    30.116613    -6.949472    -6.840868    -10.466401    0.552176    -2.696396    74.429497    -83.849472    70.772125    -3.323586    -5.476283    -4.636767    -0.351449    7.899932    7.830228    3.867025    -10.816735    13.562866    0.000000    0.000000    0.000000    -5.134020    -4.561094    5.620332    5.572348    0.917006    0.692451    -2.124757    -7.345251    -6.038476    0.000000    0.000000    0.000000    
-1.485416    102.174690    32.198536    -2.614193    -5.335642    167.997025    -2.441860    2.774405    1.191217    1.097420    2.543756    0.353239    -4.073425    -1.036513    2.205783    -8.071799    -12.255484    1.951386    11.941778    3.998106    0.757265    -44.880337    -12.325763    4.280378    9.634095    0.659148    5.684671    -102.613922    -70.167992    -95.775223    -5.922805    2.075970    -0.454063    30.087543    -6.913855    -6.724077    -10.708825    0.571567    -2.739605    74.509087    -83.759796    70.797302    -3.470401    -5.791614    -4.487128    -0.450221    8.204654    7.707384    3.876859    -10.884622    13.570799    0.000000    0.000000    0.000000    -5.276661    -4.897073    5.640390    5.527715    1.318290    0.745791    -2.188016    -7.672011    -6.173821    0.000000    0.000000    0.000000    
-1.592006    102.181480    32.015209    -2.766503    -5.577954    168.001007    -2.440042    2.750437    1.177821    1.082616    2.559108    0.349194    -3.975987    -1.044786    2.164092    -8.049252    -12.251459    1.920535    11.945714    3.999923    0.750096    -44.860325    -12.290657    4.199503    9.696170    0.662103    5.605873    -102.614967    -70.163757    -95.801636    -5.936611    2.079392    -0.460205    30.048735    -6.877570    -6.614923    -10.928309    0.588554    -2.761849    74.571449    -83.680687    70.817787    -3.619407    -6.101247    -4.335565    -0.548667    8.517362    7.579748    3.887912    -10.950582    13.583674    0.000000    0.000000    0.000000    -5.423222    -5.220107    5.659733    5.486871    1.708031    0.790446    -2.249793    -7.988824    -6.304503    0.000000    0.000000    0.000000    
-1.700397    102.187897    31.821129    -2.917999    -5.809920    168.002045    -2.438800    2.726345    1.167412    1.072209    2.576266    0.346027    -3.888494    -1.042332    2.125563    -8.032233    -12.239879    1.891976    11.947942    4.001133    0.743293    -44.840557    -12.254473    4.115714    9.756430    0.664860    5.529046    -102.594551    -70.151642    -95.803535    -5.949059    2.083038    -0.463709    29.988390    -6.841184    -6.539233    -11.146040    0.603632    -2.791181    74.779556    -83.553505    70.964478    -3.770801    -6.400534    -4.182397    -0.648862    8.844604    7.452856    3.899931    -11.018530    13.599074    0.000000    0.000000    0.000000    -5.575784    -5.519397    5.675789    5.450767    2.077158    0.833219    -2.309605    -8.293545    -6.429651    0.000000    0.000000    0.000000    
-1.810357    102.193832    31.613211    -3.065788    -6.026847    167.996490    -2.437278    2.703863    1.163210    1.066877    2.593935    0.344777    -3.812899    -1.026262    2.092836    -8.018494    -12.220302    1.868067    11.949270    4.002020    0.736702    -44.820934    -12.217179    4.028818    9.812937    0.667333    5.455820    -102.571365    -70.125893    -95.802002    -5.958937    2.086225    -0.465428    29.928911    -6.802625    -6.441785    -11.313584    0.614612    -2.764311    74.734612    -83.482628    70.906746    -3.921591    -6.684005    -4.028743    -0.753030    9.189863    7.328301    3.914299    -11.091407    13.620627    0.000000    0.000000    0.000000    -5.733537    -5.787412    5.681363    5.421140    2.422753    0.881912    -2.365441    -8.583602    -6.544271    0.000000    0.000000    0.000000    
-1.920465    102.199745    31.390684    -3.205216    -6.225128    167.980118    -2.434251    2.686162    1.168094    1.067520    2.610073    0.346266    -3.749679    -0.997694    2.067535    -8.004670    -12.192716    1.850526    11.950495    4.002763    0.731748    -44.802322    -12.178824    3.937799    9.869330    0.670029    5.388542    -102.580872    -70.088226    -95.833282    -5.965408    2.088678    -0.465235    29.859049    -6.762156    -6.346689    -11.457255    0.622888    -2.719172    74.608505    -83.407799    70.779869    -4.065557    -6.947352    -3.877428    -0.864080    9.554827    7.204765    3.933411    -11.170422    13.656058    0.000000    0.000000    0.000000    -5.892241    -6.020217    5.671609    5.399148    2.745072    0.939317    -2.414779    -8.854224    -6.642404    0.000000    0.000000    0.000000    
-2.028359    102.206406    31.155455    -3.331951    -6.404144    167.951340    -2.429071    2.675154    1.182357    1.074447    2.623180    0.350916    -3.699100    -0.961591    2.050453    -7.986434    -12.159298    1.839939    11.951821    4.003410    0.728800    -44.782928    -12.139144    3.843855    9.929084    0.673202    5.326345    -102.630524    -70.044212    -95.905045    -5.968647    2.090549    -0.462809    29.777527    -6.719565    -6.254436    -11.630823    0.631032    -2.751296    74.600990    -83.240997    70.730263    -4.196182    -7.189512    -3.732355    -0.982716    9.938215    7.084468    3.957750    -11.255074    13.707108    0.000000    0.000000    0.000000    -6.045283    -6.217775    5.646821    5.382938    3.043734    0.995659    -2.453600    -9.099170    -6.714355    0.000000    0.000000    0.000000    
-2.131140    102.214607    30.911995    -3.443352    -6.567708    167.911163    -2.421558    2.669759    1.204593    1.085774    2.632232    0.358134    -3.661024    -0.926029    2.040762    -7.958991    -12.123459    1.835413    11.952620    4.003769    0.727488    -44.758327    -12.096910    3.747845    9.996381    0.677097    5.266984    -102.723495    -69.997841    -96.020874    -5.969565    2.092197    -0.458065    29.682287    -6.674511    -6.165602    -11.717351    0.633528    -2.679612    74.077080    -83.164558    70.232407    -4.307323    -7.413468    -3.597427    -1.108877    10.333776    6.972837    3.985632    -11.343513    13.768582    0.000000    0.000000    0.000000    -6.186869    -6.386596    5.613542    5.371658    3.320537    1.039253    -2.480174    -9.313810    -6.756582    0.000000    0.000000    0.000000    
-2.225603    102.224625    30.666155    -3.538671    -6.721297    167.862411    -2.411874    2.667024    1.231605    1.097195    2.636375    0.367004    -3.634380    -0.897629    2.036642    -7.921836    -12.089893    1.835110    11.953241    4.003910    0.728586    -44.725258    -12.050164    3.646873    10.076802    0.682197    5.209010    -102.862595    -69.949600    -96.185120    -5.970551    2.094614    -0.450622    29.572430    -6.626251    -6.077796    -11.766761    0.633111    -2.604949    73.207870    -83.087891    69.401062    -4.394248    -7.623716    -3.472882    -1.241567    10.732801    6.869185    4.015535    -11.436346    13.834952    0.000000    0.000000    0.000000    -6.312995    -6.537770    5.580716    5.365512    3.583076    1.066487    -2.497496    -9.500519    -6.777335    0.000000    0.000000    0.000000    
-2.308449    102.236153    30.424059    -3.618039    -6.869327    167.810806    -2.400515    2.664083    1.258935    1.104081    2.634359    0.375964    -3.619111    -0.878915    2.036627    -7.876985    -12.061447    1.837383    11.952281    4.003313    0.732674    -44.681229    -11.996432    3.535803    10.176234    0.688859    5.147745    -103.044266    -69.897720    -96.397789    -5.972878    2.098370    -0.440116    29.445642    -6.573388    -5.987323    -11.774915    0.630044    -2.536784    71.982109    -83.009468    68.222923    -4.451653    -7.826777    -3.354220    -1.383958    11.133737    6.774876    4.044593    -11.539919    13.893935    0.000000    0.000000    0.000000    -6.420360    -6.682786    5.558034    5.363645    3.843335    1.079776    -2.512065    -9.666936    -6.793362    0.000000    0.000000    0.000000    
-2.377056    102.248642    30.191332    -3.682080    -7.014507    167.764862    -2.387438    2.658973    1.281013    1.101320    2.624279    0.383671    -3.615593    -0.871418    2.039833    -7.827435    -12.032097    1.841737    11.948804    4.001696    0.739195    -44.627949    -11.933464    3.406641    10.300553    0.697296    5.075978    -103.275238    -69.836723    -96.668747    -5.976698    2.103599    -0.426274    29.298185    -6.514523    -5.891658    -11.738694    0.624444    -2.479428    70.452003    -82.931725    66.751266    -4.475381    -8.034307    -3.224500    -1.539031    11.552272    6.685492    4.069041    -11.664266    13.928883    0.000000    0.000000    0.000000    -6.507554    -6.831486    5.555719    5.366404    4.114403    1.085947    -2.532532    -9.820629    -6.826941    0.000000    0.000000    0.000000    
